<svg fill="#000000" xmlns="http://www.w3.org/2000/svg"  viewBox="0 0 50 50" width="100px" height="100px"><path d="M 25 1 C 21.810606 1 19.34695 3.1567886 17.552734 6.3007812 C 15.758519 9.444774 14.473033 13.672052 13.400391 18.404297 C 11.255106 27.868786 10.002562 39.376805 8.0273438 47.771484 A 1.0001 1.0001 0 1 0 9.9726562 48.228516 C 11.997438 39.623195 13.244894 28.131214 15.349609 18.845703 C 16.401967 14.202948 17.678981 10.117726 19.291016 7.2929688 C 20.90305 4.4682114 22.689394 3 25 3 C 27.310606 3 29.09695 4.4682114 30.708984 7.2929688 C 32.321019 10.117726 33.598033 14.202948 34.650391 18.845703 C 36.755106 28.131214 38.002562 39.623195 40.027344 48.228516 A 1.0001 1.0001 0 1 0 41.972656 47.771484 C 39.997438 39.376805 38.744894 27.868786 36.599609 18.404297 C 35.526967 13.672052 34.241481 9.4447739 32.447266 6.3007812 C 30.65305 3.1567886 28.189394 1 25 1 z M 28.447266 14.990234 A 1.50015 1.50015 0 0 0 27.830078 17.841797 L 29.830078 18.841797 A 1.50015 1.50015 0 1 0 31.169922 16.158203 L 29.169922 15.158203 A 1.50015 1.50015 0 0 0 28.447266 14.990234 z M 21.507812 15.990234 A 1.50015 1.50015 0 0 0 20.830078 16.158203 L 18.830078 17.158203 A 1.50015 1.50015 0 1 0 20.169922 19.841797 L 22.169922 18.841797 A 1.50015 1.50015 0 0 0 21.507812 15.990234 z M 20.5 22 C 18.638889 22 17.153399 23.077875 16.273438 24.507812 C 15.393476 25.937751 15 27.721154 15 29.5 C 15 31.278846 15.393476 33.062249 16.273438 34.492188 C 17.153399 35.922125 18.638889 37 20.5 37 C 22.361111 37 23.846601 35.922125 24.726562 34.492188 C 24.824541 34.332972 24.913955 34.167486 25 34 C 25.086045 34.167486 25.175459 34.332972 25.273438 34.492188 C 26.153399 35.922125 27.638889 37 29.5 37 C 31.361111 37 32.846601 35.922125 33.726562 34.492188 C 34.606524 33.062249 35 31.278846 35 29.5 C 35 27.721154 34.606524 25.937751 33.726562 24.507812 C 32.846601 23.077875 31.361111 22 29.5 22 C 27.638889 22 26.153399 23.077875 25.273438 24.507812 C 25.175459 24.667028 25.086045 24.832514 25 25 C 24.913955 24.832514 24.824541 24.667028 24.726562 24.507812 C 23.846601 23.077875 22.361111 22 20.5 22 z M 20.5 24 C 21.638888 24 22.4034 24.547125 23.023438 25.554688 C 23.643474 26.562249 24 28.028846 24 29.5 C 24 30.971154 23.643474 32.437751 23.023438 33.445312 C 22.4034 34.452875 21.638888 35 20.5 35 C 19.361112 35 18.5966 34.452875 17.976562 33.445312 C 17.356526 32.437751 17 30.971154 17 29.5 C 17 28.028846 17.356526 26.562249 17.976562 25.554688 C 18.5966 24.547125 19.361112 24 20.5 24 z M 29.5 24 C 30.638888 24 31.4034 24.547125 32.023438 25.554688 C 32.643475 26.562249 33 28.028846 33 29.5 C 33 30.971154 32.643475 32.437751 32.023438 33.445312 C 31.4034 34.452875 30.638888 35 29.5 35 C 28.361112 35 27.5966 34.452875 26.976562 33.445312 C 26.356526 32.437751 26 30.971154 26 29.5 C 26 28.028846 26.356526 26.562249 26.976562 25.554688 C 27.5966 24.547125 28.361112 24 29.5 24 z M 20.5 28 A 1.5 2 0 0 0 20.5 32 A 1.5 2 0 0 0 20.5 28 z M 29.5 28 A 1.5 2 0 0 0 29.5 32 A 1.5 2 0 0 0 29.5 28 z M 17 39 C 16.166667 39 15.436782 39.378677 14.919922 39.958984 C 14.403061 40.539292 14.088391 41.432738 14.376953 42.3125 A 1.0001 1.0001 0 0 0 16.300781 42.259766 C 21.630738 45.651464 28.369262 45.651464 33.699219 42.259766 A 1.0001 1.0001 0 0 0 35.623047 42.3125 C 35.911609 41.432738 35.596939 40.539292 35.080078 39.958984 C 34.563218 39.378677 33.833333 39 33 39 A 1.0001 1.0001 0 0 0 32.320312 40.744141 C 27.787558 43.475107 22.212442 43.475107 17.679688 40.744141 A 1.0001 1.0001 0 0 0 17 39 z"/></svg>